<svg width="24" height="24" viewBox="0 0 24 24" fill="none" xmlns="http://www.w3.org/2000/svg">
<path d="M0 3C0 1.34315 1.34315 0 3 0H21C22.6569 0 24 1.34315 24 3V21C24 22.6569 22.6569 24 21 24H3C1.34315 24 0 22.6569 0 21V3Z" fill="#545A89"/>
<g clip-path="url(#clip0)">
<path d="M13.8709 11.7338C14.6073 11.7338 15.2449 11.4697 15.766 10.9486C16.287 10.4276 16.5512 9.7901 16.5512 9.0536C16.5512 8.31737 16.287 7.67978 15.7659 7.15859C15.2448 6.63765 14.6072 6.37354 13.8709 6.37354C13.1344 6.37354 12.4969 6.63765 11.9759 7.15867C11.4549 7.6797 11.1907 8.31728 11.1907 9.0536C11.1907 9.7901 11.4549 10.4277 11.9759 10.9487C12.4971 11.4696 13.1347 11.7338 13.8709 11.7338Z" fill="white"/>
<path d="M18.5605 14.9303C18.5455 14.7135 18.5151 14.477 18.4704 14.2272C18.4252 13.9756 18.3671 13.7377 18.2974 13.5203C18.2254 13.2955 18.1277 13.0736 18.0068 12.8609C17.8814 12.6402 17.734 12.448 17.5686 12.2898C17.3957 12.1244 17.1839 11.9913 16.9391 11.8943C16.6951 11.7978 16.4247 11.7489 16.1354 11.7489C16.0218 11.7489 15.912 11.7955 15.6998 11.9336C15.5692 12.0188 15.4165 12.1172 15.246 12.2262C15.1003 12.319 14.9028 12.4061 14.6589 12.4848C14.4209 12.5619 14.1793 12.6009 13.9407 12.6009C13.7023 12.6009 13.4607 12.5619 13.2226 12.4848C12.9789 12.4061 12.7813 12.3191 12.6358 12.2262C12.467 12.1183 12.3142 12.0199 12.1816 11.9335C11.9696 11.7954 11.8598 11.7488 11.7462 11.7488C11.4568 11.7488 11.1865 11.7978 10.9426 11.8944C10.6979 11.9912 10.4861 12.1243 10.313 12.2899C10.1476 12.4482 10.0002 12.6403 9.87494 12.8609C9.75413 13.0736 9.65632 13.2955 9.58433 13.5204C9.5148 13.7378 9.45664 13.9756 9.41148 14.2272C9.36665 14.4766 9.33634 14.7133 9.32132 14.9306C9.30654 15.1431 9.29907 15.3643 9.29907 15.5877C9.29907 16.1686 9.48373 16.6388 9.84785 16.9856C10.2075 17.3279 10.6833 17.5014 11.262 17.5014H16.6201C17.1987 17.5014 17.6745 17.3279 18.0342 16.9856C18.3984 16.6391 18.583 16.1687 18.583 15.5876C18.583 15.3634 18.5754 15.1422 18.5605 14.9303Z" fill="white"/>
<path fill-rule="evenodd" clip-rule="evenodd" d="M8.57088 7.73291H7.65675V9.78972H5.59985L5.59985 10.7038H7.65675V12.7606H8.57088V10.7038H10.6276V9.78972H8.57088V7.73291Z" fill="white"/>
</g>
<defs>
<clipPath id="clip0">
<rect width="13" height="13" fill="white" transform="translate(5.59985 5.59985)"/>
</clipPath>
</defs>
</svg>
