<svg width="24" height="24" viewBox="0 0 24 24" fill="none" xmlns="http://www.w3.org/2000/svg">
<path d="M0 3C0 1.34315 1.34315 0 3 0H21C22.6569 0 24 1.34315 24 3V21C24 22.6569 22.6569 24 21 24H3C1.34315 24 0 22.6569 0 21V3Z" fill="#545A89"/>
<g clip-path="url(#clip0)">
<path fill-rule="evenodd" clip-rule="evenodd" d="M6.2 19C6.08954 19 6 18.9105 6 18.8V16.292L13.9867 8.29815L16.6946 11.0061L8.70796 19H6.2Z" fill="white"/>
<path d="M18.7888 8.91918C19.0704 8.63755 19.0704 8.16817 18.7888 7.90099L17.099 6.21122C16.8318 5.92959 16.3624 5.92959 16.0808 6.21122L14.7521 7.5327L17.4601 10.2407L18.7888 8.91918Z" fill="white"/>
</g>
<defs>
<clipPath id="clip0">
<rect width="13" height="13" fill="white" transform="translate(6 6)"/>
</clipPath>
</defs>
</svg>
