<svg width="24" height="24" viewBox="0 0 24 24" fill="none" xmlns="http://www.w3.org/2000/svg">
<path d="M0 3C0 1.34315 1.34315 0 3 0H21C22.6569 0 24 1.34315 24 3V21C24 22.6569 22.6569 24 21 24H3C1.34315 24 0 22.6569 0 21V3Z" fill="#E91616"/>
<path d="M16.6667 6.72222H14.5L14.0306 6.1746C13.9356 6.06378 13.7969 6 13.651 6H11.0157C10.8697 6 10.731 6.06378 10.6361 6.1746L10.1667 6.72222H8V8.16667H16.6667V6.72222ZM8.61905 17.5556C8.61905 17.9386 8.74949 18.306 8.98168 18.5769C9.21387 18.8478 9.52878 19 9.85714 19H14.8095C15.1379 19 15.4528 18.8478 15.685 18.5769C15.9172 18.306 16.0476 17.9386 16.0476 17.5556V8.88889H8.61905V17.5556Z" fill="white"/>
</svg>

