<svg width="30" height="30" viewBox="0 0 24 24" fill="none" xmlns="http://www.w3.org/2000/svg">
<path d="M0 3C0 1.34315 1.34315 0 3 0H21C22.6569 0 24 1.34315 24 3V21C24 22.6569 22.6569 24 21 24H3C1.34315 24 0 22.6569 0 21V3Z" fill="#545A89"/>
<path d="M16.1111 5H7.44444C6.65 5 6 5.65 6 6.44444V16.5556C6 17.35 6.65 18 7.44444 18H17.5556C18.35 18 19 17.35 19 16.5556V7.88889L16.1111 5ZM12.5 16.5556C11.2722 16.5556 10.3333 15.6167 10.3333 14.3889C10.3333 13.1611 11.2722 12.2222 12.5 12.2222C13.7278 12.2222 14.6667 13.1611 14.6667 14.3889C14.6667 15.6167 13.7278 16.5556 12.5 16.5556ZM14.6667 9.33333H7.44444V6.44444H14.6667V9.33333Z" fill="white"/>
</svg>
