<svg width="30" height="30" viewBox="0 0 40 40" fill="none" xmlns="http://www.w3.org/2000/svg">
<path d="M0 5C0 2.23858 2.23858 0 5 0H35C37.7614 0 40 2.23858 40 5V35C40 37.7614 37.7614 40 35 40H5C2.23858 40 0 37.7614 0 35V5Z" fill="#545A89"/>
<g clip-path="url(#clip0)">
<path d="M24.79 10.4056C25.2851 10.8753 24.9527 11.7088 24.2702 11.7088H23.5149V10.9535C23.5149 10.2901 24.3088 9.94895 24.79 10.4056ZM24.6094 23.775C26.5103 23.775 28.0569 25.3215 28.0569 27.2225C28.0569 29.1235 26.5103 30.67 24.6094 30.67C22.7084 30.67 21.1619 29.1235 21.1619 27.2225C21.1619 25.3215 22.7083 23.775 24.6094 23.775ZM24.5409 25.2525C24.2008 25.2525 23.9253 25.5281 23.9253 25.8681V26.6479H23.2549C22.9148 26.6479 22.6393 26.9235 22.6393 27.2635C22.6393 27.6036 22.9148 27.8792 23.2549 27.8792H23.9253V28.5769C23.9253 28.9169 24.2008 29.1925 24.5409 29.1925C24.881 29.1925 25.1565 28.9169 25.1565 28.5769V27.8792H25.9637C26.3037 27.8792 26.5793 27.6036 26.5793 27.2635C26.5793 26.9235 26.3037 26.6479 25.9637 26.6479H25.1565V25.8681C25.1565 25.5281 24.881 25.2525 24.5409 25.2525ZM20.3931 29.25L12.2402 29.213C11.9009 29.212 11.6128 28.9161 11.6128 28.5769V9.61563C11.6128 9.27555 11.9157 9 12.2558 9H22.2836V12.3244C22.2836 12.6644 22.5865 12.94 22.9266 12.94H26.3878V22.9066C25.8953 22.6731 25.2354 22.5438 24.5956 22.5438C22.0157 22.5438 19.9236 24.6426 19.9236 27.2225C19.9237 27.9484 20.0968 28.6363 20.3931 29.25ZM14.2258 15.2794C14.2258 15.6194 14.5013 15.895 14.8414 15.895H22.9676C23.3077 15.895 23.5833 15.6194 23.5833 15.2794C23.5833 14.9393 23.3077 14.6638 22.9676 14.6638H14.8414C14.5014 14.6638 14.2258 14.9393 14.2258 15.2794ZM14.2258 17.824C14.2258 18.164 14.5013 18.4396 14.8414 18.4396H22.9676C23.3077 18.4396 23.5833 18.164 23.5833 17.824C23.5833 17.4839 23.3077 17.2083 22.9676 17.2083H14.8414C14.5014 17.2083 14.2258 17.4839 14.2258 17.824ZM14.8414 21.1483H22.9676C23.3077 21.1483 23.5833 20.8728 23.5833 20.5327C23.5833 20.1926 23.3077 19.9171 22.9676 19.9171H14.8414C14.5013 19.9171 14.2258 20.1926 14.2258 20.5327C14.2258 20.8728 14.5014 21.1483 14.8414 21.1483Z" fill="white"/>
</g>
<defs>
<clipPath id="clip0">
<rect width="21.67" height="21.67" fill="white" transform="translate(9 9)"/>
</clipPath>
</defs>
</svg>
