<svg width="100" height="23" viewBox="0 0 140 20" fill="none" xmlns="http://www.w3.org/2000/svg">
<path d="M7.84151 16.3495C6.81965 16.3779 5.7978 16.1791 4.83605 15.8384C3.96446 15.4976 3.15299 14.9865 2.52184 14.3333C1.86064 13.6234 1.34971 12.7999 1.04916 11.9196C0.327851 9.78978 0.327851 7.518 1.04916 5.41661C1.37976 4.50791 1.89069 3.68439 2.55189 3.00286C3.18304 2.34972 3.99452 1.81017 4.8661 1.4978C5.82785 1.12864 6.84971 0.958257 7.87157 0.986655C8.4426 0.986655 9.0437 1.01505 9.61474 1.10024C10.0956 1.15704 10.5464 1.24223 11.0273 1.35581C11.3579 1.44101 11.7186 1.5546 12.0191 1.69658C12.1994 1.78178 12.4098 1.86697 12.5601 1.98056L11.9891 3.5992C11.5082 3.40042 11.0273 3.23003 10.5464 3.08804C9.76501 2.88926 8.92348 2.77567 8.112 2.80407C7.39069 2.80407 6.66938 2.91766 5.97812 3.14484C5.37703 3.37202 4.83605 3.71278 4.38523 4.13874C3.93441 4.5931 3.60381 5.10424 3.36337 5.67219C3.09288 6.32532 2.9426 6.97846 2.8825 7.68839H9.73495V9.42062H2.82239C2.8825 10.1589 3.03277 10.8689 3.30326 11.5504C3.5437 12.1467 3.8743 12.7147 4.32512 13.169C4.77594 13.6234 5.31692 13.9926 5.91801 14.2197C6.60927 14.4753 7.33058 14.6173 8.08195 14.5889C8.92348 14.6173 9.73495 14.5037 10.5464 14.3049C11.0574 14.1629 11.5382 13.9926 12.0191 13.7654L12.5901 15.4692C12.4098 15.5828 12.2295 15.668 12.0191 15.7248C11.6885 15.8384 11.3579 15.952 10.9972 16.0372C10.5164 16.1507 10.0355 16.2359 9.55463 16.2927C9.01364 16.3495 8.4426 16.3779 7.84151 16.3495Z" fill="white"/>
<path d="M14.7869 14.8771H15.8723C16.2858 14.219 16.6218 13.5036 16.8802 12.7596C17.1386 12.0157 17.3196 11.2717 17.4488 10.4991C17.578 9.69788 17.6814 8.86806 17.7072 8.06685C17.7589 7.20841 17.7847 6.32136 17.7847 5.37708H24.4008V14.9057H25.7705V19.6558H24.0648V16.5082H16.4926V19.6271H14.7869V14.8771ZM22.5917 14.8771V7.0081H19.4387C19.4129 7.69485 19.3871 8.35299 19.3354 9.03974C19.2837 9.72649 19.2062 10.3846 19.0769 11.0714C18.9736 11.7295 18.7927 12.3876 18.5859 13.0172C18.3791 13.6753 18.0949 14.2762 17.7847 14.8771H22.5917Z" fill="white"/>
<path d="M38.9508 5.37708V16.3326H36.9014V7.98954C36.4493 8.52327 35.937 9.14128 35.3945 9.87164C34.852 10.602 34.3096 11.3324 33.7671 12.0908C33.2246 12.8493 32.7122 13.6078 32.1999 14.3662C31.6876 15.1247 31.2656 15.7708 30.904 16.3607H29.0656V5.40517H31.1149V13.2988C31.5067 12.7088 31.9588 12.0347 32.441 11.3043C32.9232 10.5739 33.4356 9.87164 33.978 9.16937C34.5205 8.46709 35.063 7.76482 35.5753 7.11872C36.0877 6.47263 36.6 5.91081 37.0822 5.43326L38.9508 5.37708Z" fill="white"/>
<path d="M52.1312 16.3607H49.9688V11.5166H44.4083V16.3607H42.2459V5.37708H44.4083V9.85501H49.9688V5.37708H52.1312V16.3607Z" fill="white"/>
<path d="M59.3218 5.38114C60.1044 5.35423 60.887 5.46187 61.637 5.67716C62.224 5.83862 62.7457 6.13464 63.137 6.51139C63.5283 6.88814 63.8218 7.3187 63.9522 7.77619C64.1152 8.3144 64.2131 8.85261 64.2131 9.39082V15.957L63.3979 16.0647C63.0392 16.1185 62.6479 16.1454 62.224 16.1992C61.8001 16.253 61.3109 16.28 60.7892 16.3069C60.2675 16.3338 59.7783 16.3607 59.2566 16.3607C58.6044 16.3607 57.9197 16.3069 57.2675 16.1723C56.7132 16.0647 56.1588 15.8763 55.7023 15.6072C55.2458 15.3381 54.9197 14.9882 54.6914 14.5577C54.4306 14.0733 54.3001 13.5351 54.3327 12.9968C54.3001 12.4855 54.4632 11.9742 54.7567 11.5168C55.0501 11.1131 55.4414 10.7633 55.9306 10.4942C56.4523 10.2251 57.0392 10.0367 57.6588 9.92904C58.3436 9.79448 59.0283 9.74067 59.7131 9.74067C59.9414 9.74067 60.1696 9.74066 60.4305 9.76757C60.6914 9.79448 60.9196 9.8214 61.1153 9.84831L61.7022 9.92904L62.0609 9.98286V9.44465C62.0609 9.14863 62.0283 8.82571 61.9305 8.52969C61.8653 8.23367 61.7022 7.96456 61.474 7.72237C61.2457 7.48017 60.9522 7.2918 60.5935 7.15724C60.137 6.99578 59.6479 6.94195 59.1588 6.94195C58.5066 6.94195 57.8218 6.96886 57.1697 7.07651C56.7458 7.13033 56.3219 7.21106 55.8979 7.34561L55.6371 5.7848C56.1262 5.62333 56.6153 5.5426 57.1045 5.46187C57.8218 5.40805 58.5718 5.38114 59.3218 5.38114ZM59.5175 14.7999C60.0392 14.7999 60.5283 14.7999 60.9522 14.773C61.3109 14.773 61.637 14.7191 61.9957 14.6653V11.5437C61.7348 11.4629 61.474 11.4091 61.2131 11.3822C60.3979 11.3015 59.5827 11.3015 58.8001 11.3822C58.4414 11.4091 58.0827 11.5168 57.7566 11.6244C57.4631 11.759 57.1697 11.9204 56.974 12.1626C56.7458 12.4048 56.6479 12.7277 56.6479 13.0507C56.6479 13.7234 56.9088 14.1809 57.4305 14.45C58.0175 14.6922 58.7675 14.8268 59.5175 14.7999Z" fill="white"/>
<path d="M72.9999 16.3607V0.983612H75.1065V14.5272H80.7336V0.983612H82.8401V14.5272H88.4672V0.983612H90.5737V16.3607H72.9999Z" fill="white"/>
<path d="M98.7406 10.3925C99.2155 10.7568 99.6377 11.1491 100.06 11.5694C100.535 12.0457 101.01 12.55 101.458 13.0824C101.907 13.6148 102.356 14.1752 102.751 14.7636C103.147 15.352 103.49 15.8563 103.754 16.3607H101.59C101.274 15.8563 100.931 15.352 100.561 14.9037C100.165 14.3993 99.7697 13.923 99.3475 13.4747C98.9253 13.0264 98.5031 12.5781 98.0545 12.1858C97.6587 11.8215 97.2629 11.5133 96.8143 11.2051V16.3327H94.9672V5.4051H96.8143V10.0843C97.131 9.74811 97.5004 9.38385 97.8962 8.96356C98.292 8.54327 98.7142 8.09496 99.1364 7.64665C99.5586 7.19834 99.928 6.77805 100.297 6.38578C100.667 5.9935 100.957 5.65727 101.168 5.37708H103.306C103.015 5.71331 102.672 6.10558 102.276 6.52587C101.881 6.94616 101.485 7.39448 101.063 7.84279L99.8224 9.18771C99.453 9.63602 99.0836 10.0283 98.7406 10.3925Z" fill="white"/>
<path d="M115.836 10.8689C115.836 11.6448 115.716 12.394 115.417 13.1164C115.177 13.7586 114.787 14.3472 114.278 14.8556C113.798 15.3372 113.199 15.7118 112.54 15.9794C111.131 16.4878 109.543 16.4878 108.134 15.9794C107.475 15.7118 106.875 15.3372 106.396 14.8556C105.886 14.3472 105.497 13.7586 105.257 13.1164C104.718 11.6716 104.718 10.0929 105.257 8.62132C105.497 7.97916 105.886 7.39052 106.396 6.88214C106.875 6.40052 107.475 6.02592 108.134 5.75836C109.543 5.24998 111.131 5.24998 112.54 5.75836C113.199 6.02592 113.798 6.40052 114.278 6.88214C114.787 7.39052 115.177 7.97916 115.417 8.62132C115.716 9.34375 115.836 10.1197 115.836 10.8689ZM113.648 10.8689C113.648 9.69159 113.349 8.7551 112.749 8.05943C111.67 6.85538 109.722 6.66808 108.374 7.63132C108.194 7.76511 108.044 7.89889 107.894 8.05943C107.295 8.7551 106.995 9.69159 106.995 10.8689C106.995 12.0462 107.295 12.9827 107.894 13.6783C108.973 14.8824 110.921 15.0697 112.27 14.1064C112.45 13.9727 112.599 13.8389 112.749 13.6783C113.349 12.9827 113.648 12.0462 113.648 10.8689Z" fill="white"/>
<path d="M122.311 7.02875C122.311 7.46919 122.311 7.9647 122.282 8.48773C122.253 9.01076 122.224 9.53378 122.166 10.0293C122.108 10.5248 122.022 11.0478 121.935 11.5708C121.848 12.0388 121.704 12.5343 121.53 12.9748C121.386 13.4152 121.183 13.8281 120.923 14.2135C120.692 14.5989 120.403 14.9292 120.056 15.232C119.68 15.5349 119.276 15.7826 118.842 15.9753C118.322 16.1955 117.773 16.3056 117.223 16.3607L116.934 14.7365C117.57 14.6264 118.148 14.3787 118.611 13.9658C119.044 13.5804 119.362 13.1124 119.594 12.5894C119.825 12.0663 119.969 11.5433 120.085 10.9928C120.172 10.4147 120.258 9.78153 120.316 9.14839C120.374 8.51525 120.374 7.85458 120.403 7.22144C120.432 6.5883 120.403 5.95516 120.403 5.37708H127.918V16.1129H125.895V6.97369H122.311V7.02875Z" fill="white"/>
<path d="M135.109 5.38114C135.891 5.35423 136.674 5.46187 137.424 5.67716C138.011 5.83862 138.533 6.13464 138.924 6.51139C139.315 6.88814 139.576 7.3187 139.739 7.77619C139.902 8.3144 140 8.85261 140 9.39082V15.957L139.185 16.0647C138.826 16.1185 138.435 16.1454 138.011 16.1992C137.587 16.253 137.098 16.28 136.576 16.3069C136.054 16.3338 135.565 16.3607 135.044 16.3607C134.391 16.3607 133.707 16.3069 133.054 16.1723C132.5 16.0647 131.946 15.8763 131.489 15.6072C131.033 15.3381 130.707 14.9882 130.478 14.5577C130.217 14.0733 130.087 13.5351 130.12 12.9968C130.087 12.4855 130.25 11.9742 130.544 11.5168C130.837 11.1131 131.228 10.7633 131.717 10.4942C132.239 10.2251 132.826 10.0367 133.446 9.92904C134.13 9.79448 134.815 9.74067 135.5 9.74067C135.728 9.74067 135.989 9.74066 136.217 9.76757C136.478 9.79448 136.707 9.8214 136.902 9.84831L137.489 9.92904L137.815 9.98286V9.44465C137.815 9.14863 137.783 8.82571 137.685 8.52969C137.62 8.23367 137.457 7.96456 137.228 7.72237C137 7.48017 136.707 7.2918 136.348 7.15724C135.891 6.99578 135.402 6.94195 134.913 6.94195C134.261 6.94195 133.609 6.96886 132.957 7.07651C132.533 7.13033 132.109 7.21106 131.685 7.34561L131.424 5.7848C131.913 5.65025 132.402 5.5426 132.891 5.46187C133.609 5.40805 134.359 5.38114 135.109 5.38114ZM135.304 14.7999C135.826 14.7999 136.315 14.7999 136.739 14.773C137.098 14.773 137.424 14.7191 137.783 14.6653V11.5437C137.522 11.4629 137.261 11.4091 137 11.3822C136.185 11.3015 135.37 11.3015 134.587 11.3822C134.228 11.4091 133.87 11.5168 133.544 11.6244C133.25 11.759 132.957 11.9204 132.761 12.1626C132.533 12.4048 132.435 12.7277 132.435 13.0507C132.435 13.7234 132.696 14.1809 133.217 14.45C133.804 14.6922 134.554 14.8268 135.304 14.7999Z" fill="white"/>
</svg>
