<svg width="24" height="24" viewBox="0 0 24 24" fill="none" xmlns="http://www.w3.org/2000/svg">
<path d="M0 3C0 1.34315 1.34315 0 3 0H21C22.6569 0 24 1.34315 24 3V21C24 22.6569 22.6569 24 21 24H3C1.34315 24 0 22.6569 0 21V3Z" fill="#545A89"/>
<g clip-path="url(#clip0)">
<g clip-path="url(#clip1)">
<path d="M17.814 9.23694C17.7133 9.0912 17.5715 8.9794 17.3886 8.90131C17.3984 9.08354 17.3865 9.23188 17.3528 9.34647L15.1911 17.0513C15.1526 17.1866 15.0684 17.2945 14.9389 17.3752C14.8091 17.456 14.6746 17.4963 14.5353 17.4963H7.88436C7.3079 17.4963 6.96208 17.3144 6.84673 16.9499C6.7987 16.8093 6.80113 16.6975 6.854 16.6142C6.9068 16.5361 6.99807 16.497 7.12785 16.497H13.3897C13.8365 16.497 14.1451 16.4072 14.3157 16.2276C14.4864 16.0481 14.6581 15.6486 14.8309 15.0294L16.8053 7.95671C16.911 7.57162 16.8678 7.23331 16.6756 6.94195C16.4834 6.65058 16.2096 6.50482 15.8541 6.50482H10.3705C10.3081 6.50482 10.1855 6.52817 10.003 6.57504L10.0101 6.55155C9.87561 6.52038 9.7615 6.50611 9.66784 6.5086C9.5742 6.5113 9.48771 6.54119 9.40845 6.59852C9.3292 6.65578 9.2655 6.71686 9.2175 6.78188C9.16947 6.84696 9.12257 6.93024 9.07696 7.03168C9.03141 7.13326 8.99292 7.22696 8.9617 7.31282C8.93048 7.39867 8.89441 7.48981 8.85365 7.58619C8.81276 7.68246 8.77324 7.76181 8.73477 7.82423C8.70592 7.86588 8.66516 7.92051 8.61226 7.98818C8.55949 8.05582 8.51623 8.1157 8.48261 8.16774C8.44901 8.21977 8.42733 8.26661 8.41779 8.30828C8.40825 8.35506 8.413 8.42402 8.4322 8.51515C8.45139 8.60615 8.45863 8.67245 8.45376 8.71412C8.43458 8.91186 8.3685 9.16292 8.25566 9.46746C8.14281 9.77195 8.04062 9.99189 7.94938 10.1271C7.93017 10.1531 7.87737 10.2117 7.79088 10.3028C7.70438 10.3938 7.65156 10.4731 7.6324 10.5408C7.61317 10.5668 7.61196 10.6397 7.62877 10.7593C7.64558 10.8791 7.65166 10.9623 7.64681 11.0091C7.62751 11.1861 7.56756 11.4203 7.46663 11.7118C7.3657 12.0031 7.26487 12.2426 7.16394 12.4299C7.14958 12.4611 7.10879 12.5209 7.04145 12.6095C6.97427 12.698 6.93335 12.7708 6.91897 12.8279C6.90938 12.8696 6.91064 12.9424 6.9226 13.0465C6.93454 13.1506 6.93335 13.2286 6.91897 13.2806C6.88058 13.4782 6.8085 13.7165 6.70279 13.9949C6.59712 14.2732 6.48902 14.5116 6.37845 14.7091C6.34972 14.7613 6.31 14.8225 6.25962 14.8926C6.20917 14.9628 6.16957 15.024 6.14072 15.076C6.11192 15.1281 6.09269 15.1827 6.08307 15.24C6.07828 15.2712 6.08555 15.3219 6.10475 15.3923C6.12394 15.4625 6.13118 15.5184 6.12631 15.5602C6.12146 15.633 6.11192 15.7294 6.09751 15.8491C6.08307 15.9687 6.07583 16.0388 6.07583 16.0596C5.97015 16.372 5.9749 16.7025 6.09027 17.0513C6.22479 17.457 6.46373 17.7994 6.80721 18.0778C7.15071 18.3563 7.50734 18.4953 7.8773 18.4953H14.5283C14.8405 18.4953 15.1347 18.3821 15.411 18.1558C15.6872 17.9294 15.871 17.6498 15.9621 17.3165L17.9437 10.244C18.0495 9.86923 18.0063 9.53357 17.814 9.23694ZM10.1471 9.25255L10.2984 8.75289C10.3176 8.68525 10.3572 8.62671 10.4173 8.57727C10.4773 8.52792 10.5386 8.50312 10.6011 8.50312H14.9823C15.0495 8.50312 15.0975 8.52781 15.1264 8.57727C15.1551 8.62673 15.16 8.68525 15.1409 8.75289L14.9894 9.25255C14.9701 9.32022 14.9306 9.37862 14.8704 9.4282C14.8103 9.47755 14.7492 9.50224 14.6867 9.50224H10.3056C10.2383 9.50224 10.1903 9.47763 10.1615 9.4282C10.1327 9.37862 10.1279 9.32022 10.1471 9.25255ZM9.54901 11.251L9.70034 10.7514C9.71953 10.6838 9.75918 10.6252 9.8192 10.5758C9.87927 10.5263 9.94047 10.5016 10.003 10.5016H14.3841C14.4514 10.5016 14.4995 10.5262 14.5282 10.5758C14.557 10.6252 14.5618 10.6838 14.5426 10.7514L14.3912 11.251C14.3721 11.3186 14.3324 11.3772 14.2724 11.4266C14.2123 11.4761 14.1511 11.5008 14.0886 11.5008H9.70751C9.64028 11.5008 9.59225 11.4761 9.56345 11.4266C9.53457 11.3772 9.5298 11.3186 9.54901 11.251Z" fill="white"/>
</g>
</g>
<defs>
<clipPath id="clip0">
<rect width="13" height="13" fill="white" transform="translate(5.59985 5.59991)"/>
</clipPath>
<clipPath id="clip1">
<rect width="12" height="13" fill="white" transform="translate(6 6)"/>
</clipPath>
</defs>
</svg>
