<svg width="40" height="40" viewBox="0 0 40 40" fill="none" xmlns="http://www.w3.org/2000/svg">
<path d="M0 5C0 2.23858 2.23858 0 5 0H35C37.7614 0 40 2.23858 40 5V35C40 37.7614 37.7614 40 35 40H5C2.23858 40 0 37.7614 0 35V5Z" fill="#545A89"/>
<path d="M20 9C26.0655 9 31 13.9346 31 20C31 26.0655 26.0655 31 20 31C13.9345 31 9 26.0655 9 20C9 13.9346 13.9343 9 20 9Z" fill="white"/>
<path fill-rule="evenodd" clip-rule="evenodd" d="M20 13C20.5523 13 21 13.4477 21 14V19H26C26.5523 19 27 19.4477 27 20C27 20.5523 26.5523 21 26 21H21V26C21 26.5523 20.5523 27 20 27C19.4477 27 19 26.5523 19 26V21H14C13.4477 21 13 20.5523 13 20C13 19.4477 13.4477 19 14 19H19V14C19 13.4477 19.4477 13 20 13Z" fill="#545A89"/>
</svg>
